<?xml version="1.0" encoding="utf-8"?>
<svg version="1.1" xmlns="http://www.w3.org/2000/svg" xmlns:xlink="http://www.w3.org/1999/xlink" viewBox="0 0 488.2 59" xml:space="preserve">
	<g fill="#FFFFFF">
		<path d="M0,58.2V0.9h20.6l12,40.7l0.3,0L44.6,0.9h21.9v57.3H51.1V33.1c0-1.3,0-2.8,0.1-4.4c0-1.6,0.6-5.5,1.7-11.7l-1.3,0.1
			L40,58.2H25L13.3,16.9h-0.4c0.5,7,0.8,12.5,0.8,16.4v24.9H0z"/>
		<path d="M75.5,29.4c0-9.5,2.4-16.8,7.2-21.9c4.8-5,11.7-7.6,20.8-7.6c9.1,0,16,2.5,20.7,7.5c4.7,5,7.1,12.3,7.1,22
			c0,9.6-2.4,17-7.1,22c-4.7,5-11.7,7.5-20.8,7.5c-9,0-15.9-2.5-20.7-7.6C77.9,46.4,75.5,39.1,75.5,29.4z M91.9,29.5
			c0,11.1,3.9,16.6,11.6,16.6c3.9,0,6.8-1.3,8.7-4c1.9-2.7,2.8-6.9,2.8-12.6c0-5.7-1-10-2.9-12.7s-4.8-4.1-8.6-4.1
			C95.7,12.7,91.9,18.3,91.9,29.5z"/>
		<path d="M141.7,58.2V0.9h20c9.3,0,16.4,2.4,21.4,7c5,4.7,7.6,11.5,7.6,20.4c0,9.6-2.6,17-7.9,22.2s-12.7,7.8-22.3,7.8H141.7z
			 M157.3,45.5h3.4c4.7,0,8.1-1.4,10.3-4.1c2.2-2.7,3.3-6.9,3.3-12.6c0-5.3-1-9.2-3.1-11.7c-2.1-2.5-5.2-3.8-9.5-3.8h-4.5V45.5z"/>
		<path d="M200.3,35.8V0.9h15.6v33.7c0,4.1,0.8,7,2.3,8.8c1.5,1.8,3.8,2.7,6.7,2.7c3.2,0,5.5-0.9,6.9-2.7c1.4-1.8,2.1-4.8,2.1-8.9
			V0.9h15.6v34.5c0,7.5-2.1,13.3-6.4,17.4c-4.3,4.1-10.4,6.2-18.4,6.2c-7.8,0-13.8-2-18-6S200.3,43.3,200.3,35.8z"/>
		<path d="M258.7,55.4V41.5c3,1.5,6,2.7,9.2,3.5c3.2,0.8,6.1,1.3,8.8,1.3c2.3,0,4-0.4,5.1-1.2c1.1-0.8,1.6-1.8,1.6-3.1
			c0-0.8-0.2-1.5-0.6-2s-1.1-1.2-2.1-1.8c-1-0.6-3.5-1.8-7.7-3.7c-3.7-1.7-6.5-3.3-8.4-4.9c-1.9-1.6-3.2-3.4-4.1-5.5
			c-0.9-2.1-1.3-4.5-1.3-7.3c0-5.3,1.9-9.4,5.8-12.4c3.8-3,9.1-4.4,15.8-4.4c6,0,12,1.4,18.3,4.1l-4.8,12c-5.4-2.4-10-3.7-14-3.7
			c-2,0-3.5,0.4-4.4,1.1c-0.9,0.7-1.4,1.6-1.4,2.6c0,1.1,0.6,2.1,1.8,3c1.2,0.9,4.3,2.5,9.5,4.8c5,2.2,8.4,4.6,10.3,7.1
			s2.9,5.7,2.9,9.6c0,3.6-0.9,6.7-2.7,9.5c-1.8,2.8-4.4,4.9-7.8,6.5s-7.4,2.3-12,2.3c-3.8,0-7-0.3-9.6-0.8
			C264.2,57.7,261.5,56.7,258.7,55.4z"/>
		<path d="M301.6,23.7h3.2l8.9,23.6c1.2,3,2.1,5.7,2.7,7.9h0.2c0.9-2.9,1.8-5.6,2.7-8l8.9-23.5h3.2l-13.3,34.5h-3.2L301.6,23.7z"/>
		<path d="M335.2,41.3c0-5.5,1.4-9.9,4.1-13.2c2.7-3.3,6.4-5,10.9-5c4.1,0,7.2,1.4,9.6,4.3c2.3,2.8,3.5,6.7,3.5,11.6v2.5h-24.8
			c0,4.7,1.1,8.4,3.3,10.9c2.2,2.5,5.3,3.7,9.3,3.7c2,0,3.7-0.1,5.2-0.4c1.5-0.3,3.4-0.9,5.7-1.8v2.9c-1.9,0.8-3.7,1.4-5.4,1.7
			c-1.6,0.3-3.5,0.5-5.5,0.5c-5,0-8.9-1.5-11.7-4.6C336.6,51.2,335.2,46.8,335.2,41.3z M338.7,38.6H360c0-4-0.9-7.1-2.6-9.3
			c-1.7-2.2-4.1-3.3-7.2-3.3c-3.3,0-6,1.1-8,3.3C340.2,31.4,339,34.5,338.7,38.6z"/>
		<path d="M372.9,58.2V23.7h2.7l0.3,6.2h0.2c1.4-2.5,2.9-4.3,4.5-5.3c1.6-1,3.6-1.5,5.8-1.5c1.5,0,3,0.1,4.7,0.4l-0.6,3
			c-1.4-0.4-2.9-0.6-4.5-0.6c-2.9,0-5.4,1.3-7.2,3.8c-1.9,2.5-2.8,5.7-2.8,9.5v19.1H372.9z"/>
		<path d="M395,56.8v-3.4c3.5,1.7,7.1,2.6,11,2.6c3.4,0,6-0.6,7.8-1.7c1.8-1.1,2.7-2.6,2.7-4.5c0-1.7-0.7-3.2-2.1-4.4
			c-1.4-1.2-3.7-2.4-6.9-3.5c-3.5-1.3-5.9-2.3-7.3-3.2c-1.4-0.9-2.4-1.9-3.1-3.1c-0.7-1.1-1.1-2.5-1.1-4.2c0-2.6,1.1-4.6,3.2-6.1
			c2.2-1.5,5.2-2.3,9.1-2.3c3.7,0,7.3,0.7,10.6,2.1l-1.2,2.9c-3.4-1.4-6.5-2.1-9.5-2.1c-2.8,0-5.1,0.5-6.7,1.4
			c-1.7,0.9-2.5,2.2-2.5,3.9c0,1.8,0.6,3.2,1.9,4.3c1.3,1.1,3.8,2.3,7.5,3.6c3.1,1.1,5.4,2.1,6.8,3c1.4,0.9,2.5,1.9,3.2,3.1
			c0.7,1.1,1.1,2.5,1.1,4c0,3.1-1.2,5.4-3.5,7.1s-5.7,2.5-10,2.5C401.4,58.9,397.8,58.2,395,56.8z"/>
		<path d="M428.1,46.3V23.7h3.1v22.3c0,3.5,0.7,6,2.2,7.6s3.7,2.4,6.8,2.4c4.1,0,7.1-1,9-3.1c1.9-2.1,2.9-5.4,2.9-10.1v-19h3.1v34.5
			h-2.7l-0.6-4.8h-0.2c-2.2,3.6-6.2,5.4-11.9,5.4C432,58.9,428.1,54.7,428.1,46.3z"/>
		<path d="M463.7,56.8v-3.4c3.5,1.7,7.1,2.6,11,2.6c3.4,0,6-0.6,7.8-1.7c1.8-1.1,2.7-2.6,2.7-4.5c0-1.7-0.7-3.2-2.1-4.4
			c-1.4-1.2-3.7-2.4-6.9-3.5c-3.5-1.3-5.9-2.3-7.3-3.2c-1.4-0.9-2.4-1.9-3.1-3.1c-0.7-1.1-1.1-2.5-1.1-4.2c0-2.6,1.1-4.6,3.2-6.1
			c2.2-1.5,5.2-2.3,9.1-2.3c3.7,0,7.3,0.7,10.6,2.1l-1.2,2.9c-3.4-1.4-6.5-2.1-9.5-2.1c-2.8,0-5.1,0.5-6.7,1.4
			c-1.7,0.9-2.5,2.2-2.5,3.9c0,1.8,0.6,3.2,1.9,4.3c1.3,1.1,3.8,2.3,7.5,3.6c3.1,1.1,5.4,2.1,6.8,3c1.4,0.9,2.5,1.9,3.2,3.1
			c0.7,1.1,1.1,2.5,1.1,4c0,3.1-1.2,5.4-3.5,7.1s-5.7,2.5-10,2.5C470,58.9,466.4,58.2,463.7,56.8z"/>
	</g>
</svg>
